HIERARCHY
ROOT Hips
{
	OFFSET 0.0000 0.0000 0.0000
	CHANNELS 6 Xposition Yposition Zposition Zrotation Xrotation Yrotation
	JOINT Ab
	{
		OFFSET -0.0000 8.1305 -0.0000
		CHANNELS 3 Zrotation Xrotation Yrotation
		JOINT Chest
		{
			OFFSET -0.0000 26.2902 -0.0000
			CHANNELS 3 Zrotation Xrotation Yrotation
			JOINT Neck
			{
				OFFSET -0.0000 26.2902 0.0000
				CHANNELS 3 Zrotation Xrotation Yrotation
				JOINT Head
				{
					OFFSET -0.0000 10.8167 0.0000
					CHANNELS 3 Zrotation Xrotation Yrotation
					End Site
					{
						OFFSET -0.0000 16.7167 0.0000
					}
				}
			}
			JOINT LeftCollar
			{
				OFFSET -0.0000 26.2902 0.0000
				CHANNELS 3 Zrotation Xrotation Yrotation
				JOINT LeftShoulder
				{
					OFFSET 19.6667 -0.0000 0.0000
					CHANNELS 3 Zrotation Xrotation Yrotation
					JOINT LeftElbow
					{
						OFFSET 27.2190 0.0000 0.0000
						CHANNELS 3 Zrotation Xrotation Yrotation
						JOINT LeftWrist
						{
							OFFSET 30.7431 0.0000 0.0000
							CHANNELS 3 Zrotation Xrotation Yrotation
							End Site
							{
								OFFSET 0.0000 -14.7500 0.0000
							}
						}
					}
				}
			}
			JOINT RightCollar
			{
				OFFSET -0.0000 26.2902 0.0000
				CHANNELS 3 Zrotation Xrotation Yrotation
				JOINT RightShoulder
				{
					OFFSET -19.6667 0.0000 0.0000
					CHANNELS 3 Zrotation Xrotation Yrotation
					JOINT RightElbow
					{
						OFFSET -27.2190 0.0000 0.0000
						CHANNELS 3 Zrotation Xrotation Yrotation
						JOINT RightWrist
						{
							OFFSET -30.7431 0.0000 0.0000
							CHANNELS 3 Zrotation Xrotation Yrotation
							End Site
							{
								OFFSET -0.0000 -14.7500 0.0000
							}
						}
					}
				}
			}
		}
	}
	JOINT LeftHip
	{
		OFFSET 11.8000 0.0000 0.0000
		CHANNELS 3 Zrotation Xrotation Yrotation
		JOINT LeftKnee
		{
			OFFSET -0.0000 -39.7832 0.0000
			CHANNELS 3 Zrotation Xrotation Yrotation
			JOINT LeftAnkle
			{
				OFFSET -0.0000 -41.7317 0.0000
				CHANNELS 3 Zrotation Xrotation Yrotation
				End Site
				{
					OFFSET -0.0000 -4.9167 16.7167
				}
			}
		}
	}
	JOINT RightHip
	{
		OFFSET -11.8000 0.0000 0.0000
		CHANNELS 3 Zrotation Xrotation Yrotation
		JOINT RightKnee
		{
			OFFSET -0.0000 -39.7832 0.0000
			CHANNELS 3 Zrotation Xrotation Yrotation
			JOINT RightAnkle
			{
				OFFSET -0.0000 -41.7317 0.0000
				CHANNELS 3 Zrotation Xrotation Yrotation
				End Site
				{
					OFFSET -0.0000 -4.9167 16.7167
				}
			}
		}
	}
}
MOTION
Frames: 14
Frame Time: 0.010000
-18.2125 97.0765 180.8328 358.8840 0.5076 179.3426 357.6684 348.9744 0.9282 2.6920 9.6429 0.9227 359.0346 355.5592 0.3785 355.4879 5.8628 0.6489 340.2822 357.6410 13.5254 318.3072 60.4452 339.4106 9.5492 357.2630 328.1737 83.5643 357.1616 347.2313 26.3924 356.1268 343.5235 46.4562 47.9983 3.7957 340.0893 354.6101 29.9192 271.4298 356.4762 8.5833 357.4341 4.6968 358.1817 357.6067 9.1739 358.3170 355.2586 350.3614 21.6520 358.9417 8.7179 9.4981 6.3231 4.7354 5.0254 350.8984 344.2018 319.9668 
-18.2530 97.0698 180.8216 358.9003 0.4995 179.3339 357.6825 348.9690 0.9295 2.6867 9.6589 0.9216 359.0057 355.5142 0.3817 355.4855 5.8982 0.6514 340.2632 357.6568 13.5024 318.2109 60.3635 339.5574 9.4498 357.2918 328.1131 83.7396 357.1676 347.2448 26.3959 356.0901 343.5170 46.4438 48.0189 3.8076 340.0400 354.6142 29.8962 271.4092 356.4494 8.5407 357.4251 4.6807 358.1756 357.5968 9.2120 358.2906 355.3080 350.3370 21.6778 358.9284 8.7123 9.5362 6.3268 4.7482 5.0617 350.8760 344.2140 319.8985 
-18.2970 97.0647 180.8153 358.8981 0.4740 179.3153 357.6770 348.9413 0.9271 2.6848 9.6884 0.9238 358.9457 355.4993 0.3704 355.5261 5.8795 0.6379 340.2524 357.6190 13.5098 318.2140 60.3637 339.5378 9.5016 357.2596 328.1376 83.5800 357.1570 347.1472 26.4220 356.1115 343.5217 46.4055 47.9226 3.7910 340.1554 354.6293 29.9586 271.3113 356.4698 8.5750 357.3911 4.6405 358.2069 357.6028 9.2538 358.2553 355.3149 350.3104 21.6907 358.8943 8.6783 9.5422 6.3306 4.7694 5.0872 350.9737 344.1521 319.8917 
-18.3369 97.0586 180.8051 358.9160 0.4771 179.3148 357.7077 348.9734 0.9074 2.6477 9.6535 0.9040 358.8093 355.5620 0.3808 355.7232 5.7838 0.6378 340.2586 357.6492 13.5136 318.1826 60.3297 339.5939 9.3971 357.2842 328.1018 83.6443 357.1501 347.1198 26.4846 356.1137 343.5285 46.3462 47.9259 3.7674 340.1391 354.6522 29.9722 271.3649 356.5347 8.4811 357.3864 4.6231 358.2325 357.5967 9.3091 358.1991 355.3339 350.2690 21.7221 358.8917 8.6835 9.5485 6.3209 4.7794 5.0920 350.9377 344.1615 319.8729 
-18.3828 97.0519 180.7909 358.9249 0.4658 179.3047 357.7082 348.9604 0.9022 2.6501 9.6627 0.8977 358.7048 355.5973 0.3903 355.8458 5.7207 0.6466 340.2510 357.6186 13.5241 318.1131 60.3401 339.6562 9.4886 357.2794 328.1053 83.7162 357.1128 347.2002 26.4889 356.1124 343.5609 46.3521 47.9175 3.7327 340.1591 354.6078 29.9735 271.2916 356.5246 8.4808 357.3643 4.6076 358.2140 357.5938 9.3346 358.1517 355.4374 350.2415 21.7666 358.8694 8.6724 9.5374 6.3222 4.7934 5.0525 351.0320 344.1064 319.9309 
-18.4228 97.0471 180.7749 358.9384 0.4671 179.2791 357.7048 348.9595 0.9099 2.6526 9.6853 0.9050 358.6498 355.5911 0.3779 355.8814 5.6916 0.6292 340.2456 357.6461 13.5604 318.2015 60.3217 339.5570 9.3822 357.3052 328.1132 83.7476 357.1185 347.1888 26.5003 356.1091 343.5587 46.3330 47.9156 3.7316 340.1688 354.6529 29.9710 271.3732 356.4781 8.5772 357.3557 4.6044 358.2197 357.5697 9.3771 358.1579 355.3783 350.2060 21.8033 358.8564 8.6706 9.5994 6.3194 4.8119 5.0472 351.0058 344.1062 319.9037 
-18.4646 97.0404 180.7540 358.9613 0.4669 179.2547 357.7197 348.9359 0.9072 2.6514 9.7351 0.8999 358.5581 355.5890 0.3567 355.9729 5.6355 0.6018 340.2267 357.6415 13.5977 318.3500 60.3315 339.3703 9.3825 357.3050 328.1824 83.8055 357.0805 347.2275 26.5182 356.1038 343.5801 46.3496 47.8643 3.6771 340.1911 354.6261 30.0135 271.3387 356.5408 8.5216 357.3549 4.6144 358.2034 357.5506 9.3895 358.1419 355.4645 350.1947 21.8542 358.8531 8.6694 9.5633 6.3059 4.8429 5.0895 351.0394 344.0567 319.9351 
-18.5122 97.0363 180.7377 358.9649 0.4590 179.2471 357.7167 348.9236 0.8997 2.6500 9.7635 0.8938 358.4961 355.5691 0.3481 356.0107 5.6027 0.5970 340.2357 357.6085 13.6277 318.4030 60.3952 339.2896 9.4244 357.3023 328.2280 83.8243 357.0314 347.2981 26.5388 356.1390 343.5701 46.3048 47.8570 3.7019 340.1936 354.6599 30.0186 271.3876 356.4963 8.4527 357.3250 4.5913 358.1736 357.5507 9.4336 358.1567 355.4789 350.1559 21.8537 358.8226 8.6622 9.6369 6.3142 4.8525 5.0322 351.0538 344.0433 319.9230 
-18.5569 97.0286 180.7177 358.9915 0.4627 179.2363 357.7233 348.9213 0.8985 2.6536 9.7872 0.8922 358.4397 355.5390 0.3389 356.0580 5.6045 0.5926 340.2312 357.6426 13.6420 318.4590 60.4126 339.2375 9.3475 357.3170 328.2302 83.7653 357.0242 347.2551 26.5489 356.1003 343.5937 46.3522 47.8005 3.6397 340.1646 354.6036 30.0176 271.3836 356.4753 8.5812 357.3317 4.5999 358.1480 357.5174 9.4637 358.1326 355.5712 350.1546 21.9258 358.8221 8.6602 9.6060 6.3095 4.8919 5.0744 351.0782 344.0133 319.9027 
-18.6073 97.0255 180.6892 358.9891 0.4818 179.2234 357.6977 348.9181 0.8943 2.6632 9.8289 0.8876 358.4060 355.5081 0.3440 356.0729 5.6002 0.5846 340.2215 357.5996 13.6170 318.3827 60.4109 339.3428 9.4517 357.2756 328.1157 84.3398 357.4124 348.0011 26.5459 356.1369 343.6009 46.3932 47.8050 3.5970 340.2112 354.6304 30.0079 271.4269 356.4707 8.6429 357.2946 4.6187 358.1690 357.5259 9.4988 358.0686 355.5549 350.0997 21.9628 358.7873 8.6904 9.6537 6.3054 4.8967 5.0105 351.1268 343.9860 319.9427 
-18.6574 97.0192 180.6754 358.9954 0.4689 179.1885 357.6896 348.9083 0.9017 2.6795 9.8613 0.8928 358.3429 355.4679 0.3262 356.0847 5.5743 0.5768 340.1897 357.6122 13.5919 318.3020 60.3052 339.4788 9.3557 357.3121 328.1027 84.1572 357.1287 347.5194 26.5241 356.1433 343.6011 46.4491 47.8236 3.5900 340.0306 354.5661 30.0464 272.2707 356.0934 7.4565 357.2605 4.6002 358.2130 357.5255 9.5409 358.0675 355.5917 350.0717 21.9509 358.7543 8.6652 9.7458 6.3115 4.9237 4.9608 351.1573 343.9443 319.9419 
-18.7172 97.0178 180.6554 358.9935 0.4622 179.1640 357.7062 348.9013 0.8955 2.6339 9.8880 0.8897 358.2716 355.4247 0.3165 356.1442 5.5780 0.5704 340.1989 357.6432 13.5719 318.2266 60.2393 339.5667 9.3803 357.3297 328.0718 84.0704 357.1276 347.4693 26.5301 356.1058 343.5911 46.4887 47.8860 3.5622 339.9724 354.5649 30.0299 272.3433 356.1414 7.4081 357.2143 4.6035 358.1982 357.5195 9.5415 358.0988 355.6574 350.0572 21.9712 358.7037 8.6456 9.7833 6.3284 4.9596 4.9284 351.1830 343.9089 319.9558 
-18.7726 97.0104 180.6447 359.0033 0.4373 179.1515 357.7125 348.8866 0.8844 2.6145 9.8992 0.8807 358.1799 355.4486 0.3092 356.2383 5.4906 0.5588 340.2106 357.6173 13.5693 318.1624 60.2369 339.6138 9.4623 357.3020 328.1100 83.9852 357.1074 347.4249 26.5439 356.1309 343.6248 46.5425 47.8273 3.4768 340.0525 354.5653 30.0774 272.3157 356.2189 7.4649 357.1827 4.5601 358.1936 357.5278 9.5989 358.0731 355.6717 350.0267 21.9776 358.6737 8.5897 9.7204 6.3311 5.0406 5.0254 351.1971 343.8873 319.9347 
-18.8272 97.0034 180.6373 359.0221 0.4161 179.1601 357.7058 348.8878 0.8647 2.6296 9.9060 0.8572 358.0686 355.4923 0.3025 356.3361 5.3791 0.5440 340.1939 357.6485 13.5587 318.1247 60.1534 339.6768 9.3366 357.3398 328.0791 84.0920 357.1026 347.3408 26.5501 356.1085 343.6369 46.5496 47.8027 3.4525 340.0498 354.6034 30.0695 272.1031 356.1370 7.4362 357.1703 4.5181 358.1474 357.5105 9.6470 358.0478 355.7315 349.9882 22.0420 358.6592 8.5414 9.6959 6.3411 5.1020 5.0045 351.2220 343.8374 319.9645 
